<svg width="25" height="31" viewBox="0 0 25 31" fill="none" xmlns="http://www.w3.org/2000/svg">
<path d="M15.5833 1.625V7.79167C15.5833 8.20054 15.7458 8.59267 16.0349 8.88179C16.324 9.17091 16.7161 9.33333 17.125 9.33333H23.2917" stroke="#F8F8F8" stroke-width="2" stroke-linecap="round" stroke-linejoin="round"/>
<path d="M20.2083 29.375H4.79168C3.97393 29.375 3.18967 29.0501 2.61143 28.4719C2.03319 27.8937 1.70834 27.1094 1.70834 26.2917V4.70833C1.70834 3.89058 2.03319 3.10632 2.61143 2.52809C3.18967 1.94985 3.97393 1.625 4.79168 1.625H15.5833L23.2917 9.33333V26.2917C23.2917 27.1094 22.9668 27.8937 22.3886 28.4719C21.8104 29.0501 21.0261 29.375 20.2083 29.375Z" stroke="#F8F8F8" stroke-width="2" stroke-linecap="round" stroke-linejoin="round"/>
<path d="M10.9583 16.2708C10.9583 15.6575 10.7147 15.0693 10.281 14.6357C9.84735 14.202 9.25916 13.9583 8.64584 13.9583C8.03253 13.9583 7.44434 14.202 7.01066 14.6357C6.57698 15.0693 6.33334 15.6575 6.33334 16.2708V20.8958C6.33334 21.5092 6.57698 22.0973 7.01066 22.531C7.44434 22.9647 8.03253 23.2083 8.64584 23.2083C9.25916 23.2083 9.84735 22.9647 10.281 22.531C10.7147 22.0973 10.9583 21.5092 10.9583 20.8958M14.0417 13.9583L16.3542 23.2083L18.6667 13.9583" stroke="#F8F8F8" stroke-width="2" stroke-linecap="round" stroke-linejoin="round"/>
</svg>
