<svg width="27" height="23" viewBox="0 0 27 23" fill="none" xmlns="http://www.w3.org/2000/svg">
<path d="M0.125015 3.4375C0.125015 2.72473 0.408161 2.04115 0.912165 1.53715C1.41617 1.03315 2.09974 0.75 2.81251 0.75H24.3125C25.0253 0.75 25.7088 1.03315 26.2129 1.53715C26.7169 2.04115 27 2.72473 27 3.4375V19.5625C27 20.2753 26.7169 20.9588 26.2129 21.4628C25.7088 21.9668 25.0253 22.25 24.3125 22.25H2.81251C2.09974 22.25 1.41617 21.9668 0.912165 21.4628C0.408161 20.9588 0.125015 20.2753 0.125015 19.5625V3.4375ZM4.85367 3.4375L13.5625 11.0579L22.2713 3.4375H4.85367ZM24.3125 5.22334L14.448 13.8556C14.203 14.0703 13.8883 14.1886 13.5625 14.1886C13.2367 14.1886 12.922 14.0703 12.677 13.8556L2.81251 5.22334V19.5625H24.3125V5.22334Z" fill="#2A5F9E"/>
</svg>
