<svg width="46" height="46" viewBox="0 0 46 46" fill="none" xmlns="http://www.w3.org/2000/svg">
<g clip-path="url(#clip0_50_90)">
<path d="M43.5054 3.14549C41.8416 1.4817 39.8396 0.65094 37.4972 0.65094H9.15374C6.81127 0.65094 4.80928 1.4817 3.14549 3.14549C1.4817 4.80928 0.65094 6.81128 0.65094 9.15375V37.4972C0.65094 39.8397 1.4817 41.8417 3.14549 43.5054C4.80928 45.1692 6.81127 46 9.15374 46H15.768C16.1993 46 16.5239 45.9841 16.7418 45.9546C16.9953 45.9038 17.2242 45.7686 17.391 45.571C17.6066 45.344 17.7156 45.0149 17.7156 44.5836L17.6997 42.5748C17.6906 41.2946 17.6861 40.2823 17.6861 39.5332L17.0051 39.6513C16.5738 39.7307 16.0291 39.7648 15.3686 39.7557C14.6801 39.743 13.9938 39.6739 13.3166 39.5491C12.5957 39.416 11.9171 39.1125 11.3373 38.6639C10.7301 38.2045 10.2773 37.5711 10.039 36.848L9.7439 36.1671C9.49519 35.6299 9.18273 35.1246 8.81327 34.6622C8.39108 34.1106 7.96208 33.7383 7.52854 33.5409L7.32426 33.3933C7.18181 33.2913 7.05224 33.1724 6.93838 33.0392C6.82964 32.9156 6.74012 32.7764 6.67281 32.6261C6.6138 32.4877 6.66373 32.3742 6.82035 32.2856C6.97924 32.1949 7.26297 32.1517 7.67835 32.1517L8.26851 32.2425C8.66119 32.3197 9.1492 32.5558 9.72801 32.9484C10.3138 33.3478 10.8031 33.8728 11.1603 34.4851C11.6142 35.2909 12.159 35.906 12.7991 36.3305C13.4392 36.7527 14.0838 36.966 14.733 36.966C15.3822 36.966 15.9428 36.9161 16.4172 36.8185C16.876 36.7236 17.3218 36.5743 17.7451 36.3736C17.9221 35.0571 18.4033 34.0402 19.191 33.332C18.1704 33.232 17.1589 33.0544 16.1653 32.8009C15.1956 32.5345 14.263 32.1479 13.3893 31.6501C12.4751 31.1524 11.6676 30.4799 11.0127 29.6708C10.384 28.8832 9.86647 27.8504 9.46244 26.5725C9.06068 25.2923 8.85866 23.8146 8.85866 22.1418C8.85866 19.7607 9.63495 17.7337 11.1898 16.0586C10.4634 14.27 10.5315 12.2612 11.3963 10.039C11.9683 9.85967 12.815 9.99359 13.9363 10.4362C15.0576 10.8788 15.8793 11.2579 16.4013 11.5711C16.9234 11.8889 17.341 12.1545 17.6565 12.3701C19.5019 11.8566 21.4089 11.5984 23.3243 11.6029C25.2741 11.6029 27.1626 11.8594 28.9944 12.3701L30.1157 11.6619C30.9782 11.1441 31.8879 10.7093 32.8327 10.3636C33.8768 9.96862 34.6712 9.86194 35.2251 10.039C36.1103 12.2634 36.1875 14.27 35.4589 16.0609C37.0137 17.7337 37.7923 19.7607 37.7923 22.144C37.7923 23.8169 37.5902 25.2991 37.1862 26.5861C36.7845 27.8754 36.2624 28.9081 35.6223 29.6867C34.9559 30.4854 34.1451 31.1515 33.2322 31.6501C32.2788 32.1812 31.3527 32.5648 30.4561 32.8009C29.4626 33.0552 28.4511 33.2336 27.4305 33.3343C28.4519 34.2195 28.9649 35.6155 28.9649 37.5244V44.5836C28.9649 44.9173 29.0125 45.1874 29.1124 45.394C29.1583 45.4935 29.2238 45.5827 29.3049 45.6564C29.386 45.7301 29.4811 45.7868 29.5845 45.8229C29.8024 45.9001 29.9931 45.9501 30.1611 45.9682C30.329 45.9909 30.5696 45.9977 30.8829 45.9977H37.4972C39.8396 45.9977 41.8416 45.167 43.5054 43.5032C45.167 41.8417 46 39.8374 46 37.4949V9.15375C46 6.81128 45.1692 4.80928 43.5054 3.14549Z" fill="#F8F8F8"/>
</g>
<defs>
<clipPath id="clip0_50_90">
<rect width="46" height="46" fill="white"/>
</clipPath>
</defs>
</svg>
