<svg width="50" height="50" viewBox="0 0 50 50" fill="none" xmlns="http://www.w3.org/2000/svg">
<path d="M45.3125 1.17187H4.6875C3.76575 1.16249 2.87792 1.51916 2.21882 2.1636C1.55973 2.80805 1.18321 3.68764 1.17188 4.60937V45.3984C1.18526 46.3188 1.56268 47.1964 2.22155 47.8392C2.88042 48.4819 3.76708 48.8375 4.6875 48.8281H45.3125C46.2343 48.8354 47.1215 48.4776 47.7803 47.8327C48.439 47.1879 48.8158 46.3085 48.8281 45.3867V4.59765C48.8117 3.67863 48.4332 2.80323 47.7749 2.16174C47.1165 1.52025 46.2316 1.16452 45.3125 1.17187Z" fill="#0076B2"/>
<path d="M8.22656 19.0352H15.3008V41.7969H8.22656V19.0352ZM11.7656 7.70706C12.577 7.70706 13.3702 7.94771 14.0447 8.39857C14.7193 8.84943 15.245 9.49024 15.5553 10.2399C15.8657 10.9896 15.9467 11.8145 15.7881 12.6102C15.6295 13.406 15.2385 14.1368 14.6645 14.7102C14.0905 15.2837 13.3593 15.674 12.5634 15.8319C11.7675 15.9897 10.9427 15.9079 10.1933 15.5969C9.44392 15.2858 8.80362 14.7595 8.3534 14.0845C7.90319 13.4095 7.66329 12.6161 7.66406 11.8047C7.6651 10.7176 8.09768 9.67535 8.86676 8.907C9.63584 8.13865 10.6785 7.70706 11.7656 7.70706ZM19.7383 19.0352H26.5195V22.1602H26.6133C27.5586 20.3711 29.8633 18.4844 33.3047 18.4844C40.4688 18.4688 41.7969 23.1836 41.7969 29.2969V41.7969H34.7227V30.7227C34.7227 28.086 34.6758 24.6914 31.0469 24.6914C27.418 24.6914 26.8008 27.5664 26.8008 30.5508V41.7969H19.7383V19.0352Z" fill="white"/>
</svg>
