<svg width="27" height="27" viewBox="0 0 27 27" fill="none" xmlns="http://www.w3.org/2000/svg">
<path d="M2.86044 2.65752H8.82656L10.7493 7.46497L7.65991 9.52454C7.47799 9.64593 7.32883 9.81034 7.22568 10.0032C7.12254 10.196 7.06858 10.4114 7.06862 10.6301C7.0726 10.755 7.06862 10.6314 7.06862 10.6314V10.6593C7.06931 10.7187 7.07197 10.7781 7.07659 10.8374C7.08456 10.9463 7.09785 11.0938 7.1231 11.2758C7.17492 11.6346 7.27457 12.1289 7.46857 12.7109C7.85923 13.8802 8.62459 15.3937 10.1155 16.8845C11.6063 18.3754 13.1198 19.1408 14.2878 19.5314C14.8711 19.7254 15.3641 19.8238 15.7255 19.8769C15.9295 19.9054 16.1348 19.9231 16.3407 19.9301L16.358 19.9314H16.3686C16.3686 19.9314 16.5174 19.9234 16.3699 19.9314C16.6166 19.9313 16.8584 19.8624 17.0682 19.7327C17.278 19.6029 17.4476 19.4173 17.5578 19.1966L18.4481 17.416L24.3425 18.3993V24.1396C21.5375 24.5448 13.9609 24.9448 8.00805 18.992C2.05521 13.0391 2.45384 5.4612 2.86044 2.65752ZM9.82313 11.2758L12.2242 9.67602C12.7314 9.33768 13.1069 8.83521 13.2876 8.25287C13.4684 7.67054 13.4433 7.04377 13.2168 6.4777L11.2941 1.67025C11.0968 1.17715 10.7562 0.754489 10.3164 0.456777C9.8766 0.159065 9.35767 -3.5602e-05 8.82656 5.97572e-09H2.79134C1.5835 5.97572e-09 0.447412 0.838447 0.249427 2.1486C-0.202351 5.12768 -0.814909 13.9267 6.12918 20.8708C13.0733 27.8149 21.8723 27.201 24.8514 26.7506C26.1616 26.5513 27 25.4165 27 24.2087V18.3993C27.0001 17.7702 26.777 17.1615 26.3704 16.6815C25.9638 16.2014 25.4002 15.8812 24.7796 15.7777L18.8853 14.7957C18.3247 14.7022 17.7488 14.7908 17.2423 15.0486C16.7358 15.3064 16.3252 15.7198 16.071 16.2281L15.6112 17.149C15.4486 17.1089 15.2877 17.0624 15.1289 17.0094C14.305 16.7357 13.161 16.1723 11.9943 15.0057C10.8277 13.839 10.2643 12.695 9.99056 11.8698C9.92521 11.6747 9.86978 11.4765 9.82446 11.2758H9.82313Z" fill="#2A5F9E"/>
</svg>
