<svg width="46" height="46" viewBox="0 0 46 46" fill="none" xmlns="http://www.w3.org/2000/svg">
<g clip-path="url(#clip0_50_81)">
<path d="M39.1 0H6.9C3.08924 0 0 3.08924 0 6.9V39.1C0 42.9108 3.08924 46 6.9 46H39.1C42.9108 46 46 42.9108 46 39.1V6.9C46 3.08924 42.9108 0 39.1 0Z" fill="#6FDA44"/>
<path d="M32.0922 26.6746C30.5648 26.6746 29.1273 26.0278 27.8336 24.9766L28.148 23.4852L28.157 23.4313C28.4445 21.85 29.334 19.1906 32.0922 19.1906C34.1586 19.1906 35.8387 20.8707 35.8387 22.9371C35.8387 25.0035 34.1586 26.6746 32.0922 26.6746ZM32.0922 15.3992C28.5703 15.3992 25.848 17.6813 24.734 21.4457C23.0449 18.9031 21.7602 15.8574 21.0145 13.2879H17.223V23.1438C17.223 25.0934 15.6418 26.6746 13.6922 26.6746C11.7426 26.6746 10.1613 25.0934 10.1613 23.1438V13.2789H6.37891V23.1348C6.37891 27.1688 9.6582 30.484 13.6922 30.484C17.7262 30.484 21.0055 27.1688 21.0055 23.1348V21.4817C21.7422 23.018 22.6406 24.5723 23.7367 25.9379L21.4188 36.8449H25.291L26.9711 28.9387C28.4445 29.8821 30.1336 30.475 32.0742 30.475C36.225 30.475 39.6031 27.0789 39.6031 22.9192C39.6121 18.7774 36.243 15.3992 32.0922 15.3992Z" fill="white"/>
</g>
<defs>
<clipPath id="clip0_50_81">
<rect width="46" height="46" fill="white"/>
</clipPath>
</defs>
</svg>
