<svg width="28" height="39" viewBox="0 0 28 39" fill="none" xmlns="http://www.w3.org/2000/svg">
<g clip-path="url(#clip0_104_602)">
<path d="M13.9829 38.9014L2.58804 35.7769L0.0486755 7.64502H27.9513L25.4093 35.7726L13.9829 38.9014Z" fill="#264DE4"/>
<path d="M23.2331 33.9815L25.4053 9.94519H14V36.5098L23.2331 33.9815Z" fill="#2965F1"/>
<path d="M5.87006 20.379L6.18309 23.8293H14V20.379H5.87006ZM5.24094 13.3956L5.55845 16.8459H14V13.3956H5.24094ZM14 29.3397L13.9847 29.3437L10.0945 28.3062L9.84573 25.5544H6.33917L6.82851 30.9719L13.9839 32.9338L14 32.9294V29.3397Z" fill="#EBEBEB"/>
<path d="M6.61545 0H10.8461V1.74755H8.3847V3.49509H10.8463V5.24253H6.61545V0ZM11.6923 0H15.923V1.5196H13.4616V1.82349H15.923V5.31858H11.6924V3.72283H14.1539V3.41893H11.6922L11.6923 0ZM16.7693 0H21V1.5196H18.5385V1.82349H21V5.31858H16.7693V3.72283H19.2308V3.41893H16.7694L16.7693 0Z" fill="#F8F8F8"/>
<path d="M22.1076 20.379L22.7382 13.3956H13.988V16.8459H18.9101L18.5922 20.379H13.988V23.8293H18.2894L17.8838 28.304L13.9879 29.3426V32.9321L21.149 30.9719L21.2015 30.3889L22.0224 21.3055L22.1076 20.379Z" fill="white"/>
</g>
<defs>
<clipPath id="clip0_104_602">
<rect width="28" height="39" fill="white"/>
</clipPath>
</defs>
</svg>
