<svg width="27" height="38" viewBox="0 0 27 38" fill="none" xmlns="http://www.w3.org/2000/svg">
<g clip-path="url(#clip0_104_596)">
<path d="M26.9531 7.4491L24.5019 34.8554L13.4835 37.904L2.4956 34.8596L0.046936 7.4491H26.9531Z" fill="#E44D26"/>
<path d="M13.5 35.5737L22.4034 33.1102L24.498 9.69019H13.5V35.5737Z" fill="#F16529"/>
<path d="M8.73492 16.4139H13.5V13.0521H5.05374L5.13432 13.954L5.96225 23.2182H13.5V19.8564H9.04278L8.73492 16.4139ZM9.49408 24.8992H6.11275L6.58462 30.1777L13.4845 32.0893L13.5 32.0851V28.5874L13.4852 28.5913L9.73392 27.5803L9.49408 24.8992Z" fill="#EBEBEB"/>
<path d="M2.55023 0H4.26199V1.68789H5.82788V0H7.53975V5.11137H5.82799V3.39979H4.2621V5.11137H2.55034L2.55023 0ZM9.79066 1.69505H8.28394V0H13.0104V1.69505H11.5027V5.11137H9.79098V1.69505H9.79066ZM13.7605 0H15.5454L16.6433 1.796L17.7402 0H19.5257V5.11137H17.8209V2.57789L16.6433 4.39526H16.6138L15.4353 2.57789V5.11137H13.7605V0ZM20.3776 0H22.0899V3.42189H24.4971V5.11137H20.3775L20.3776 0Z" fill="white"/>
<path d="M13.4884 23.2182H17.6362L17.2451 27.5782L13.4883 28.5902V32.0877L20.3936 30.1777L20.4443 29.6097L21.2359 20.7592L21.3181 19.8564H13.4884V23.2182ZM13.4884 16.4057V16.4139H21.6246L21.6921 15.6583L21.8456 13.954L21.9261 13.0521H13.4884V16.4057Z" fill="white"/>
</g>
<defs>
<clipPath id="clip0_104_596">
<rect width="27" height="38" fill="white"/>
</clipPath>
</defs>
</svg>
