<svg width="40" height="41" viewBox="0 0 40 41" fill="none" xmlns="http://www.w3.org/2000/svg">
<path d="M30.4832 0H9.3316C4.1779 0 0 4.21897 0 9.42332V30.7829C0 35.9872 4.1779 40.2062 9.3316 40.2062H30.4832C35.6369 40.2062 39.8148 35.9872 39.8148 30.7829V9.42332C39.8148 4.21897 35.6369 0 30.4832 0Z" fill="#F0DB4F"/>
<path d="M10.4688 33.5992L13.5156 31.7371C14.1034 32.7895 14.6381 33.68 15.9208 33.68C17.1502 33.68 17.9254 33.1944 17.9254 31.3054V18.4585H21.667V31.3588C21.667 35.2721 19.3954 37.0534 16.0811 37.0534C13.088 37.0534 11.3506 35.4881 10.4686 33.5988M23.6993 33.1943L26.7457 31.4131C27.5478 32.7357 28.5901 33.7072 30.434 33.7072C31.9845 33.7072 32.973 32.9244 32.973 31.8448C32.973 30.5494 31.9574 30.0905 30.247 29.3351L29.3118 28.9301C26.6123 27.7697 24.8216 26.3123 24.8216 23.2355C24.8216 20.4016 26.9597 18.2424 30.3006 18.2424C32.6792 18.2424 34.3897 19.0792 35.619 21.2653L32.7058 23.1545C32.0643 21.994 31.3697 21.5353 30.3006 21.5353C29.2048 21.5353 28.5099 22.237 28.5099 23.1545C28.5099 24.288 29.2048 24.7469 30.8082 25.4488L31.7436 25.8535C34.9239 27.2301 36.7147 28.6332 36.7147 31.7908C36.7147 35.1917 34.0689 37.0537 30.5143 37.0537C27.04 37.0537 24.795 35.3805 23.6993 33.1943Z" fill="#323330"/>
</svg>
