<svg width="96" height="84" viewBox="0 0 96 84" fill="none" xmlns="http://www.w3.org/2000/svg">
<path d="M60.1337 0.170105H31.6242C24.6777 0.170105 19.0464 5.85669 19.0464 12.8715V41.6612C19.0464 48.676 24.6777 54.3625 31.6242 54.3625H60.1337C67.0801 54.3625 72.7114 48.676 72.7114 41.6612V12.8715C72.7114 5.85669 67.0801 0.170105 60.1337 0.170105Z" fill="#023430"/>
<path d="M54.9292 22.946C52.7203 13.1064 48.1169 10.487 46.9426 8.63535C46.4583 7.81965 46.0293 6.97172 45.6586 6.09741C45.5965 6.97169 45.4825 7.52208 44.7467 8.18509C43.2694 9.51513 36.9953 14.6782 36.4672 25.8582C35.9752 36.2822 44.0558 42.7097 45.1232 43.3742C45.9441 43.7821 46.9438 43.3829 47.4316 43.0084C51.3267 40.3089 56.6488 33.1119 54.9334 22.946" fill="#10AA50"/>
<path d="M45.9931 37.8235C45.7898 40.4036 45.6441 41.9027 45.1276 43.3772C45.1276 43.3772 45.4666 45.8334 45.7047 48.4353H46.5472C46.7482 46.603 47.055 44.7842 47.4662 42.9881C46.3755 42.4461 46.0351 40.0875 45.9931 37.8235Z" fill="#B8C4C2"/>
<path d="M47.4648 42.9896C46.3625 42.4754 46.0437 40.067 45.9946 37.8235C46.2671 34.1225 46.3466 30.4097 46.2328 26.7003C46.1749 24.754 46.26 8.67325 45.758 6.31885C46.1015 7.11625 46.4972 7.88964 46.9426 8.63388C48.1169 10.487 52.7218 13.1065 54.9292 22.946C56.6488 33.0946 51.3557 40.2725 47.4648 42.9896Z" fill="#12924F"/>
<path d="M9.44965 74.2993L4.63889 61.4698L4.62839 61.4344H0.885695V62.2967H1.48944C1.67289 62.2967 1.84539 62.3796 1.97499 62.5212C2.10436 62.6629 2.16916 62.852 2.16916 63.053L2.06124 75.9647C2.06124 76.3666 1.75936 76.6972 1.39247 76.7091L0.777771 76.7208V77.5714H4.42349V76.7208L4.04587 76.7091C3.6792 76.6972 3.3771 76.3666 3.3771 75.965V63.7967L8.61911 77.5711C8.69463 77.7719 8.86713 77.902 9.06153 77.902C9.25548 77.902 9.42798 77.7719 9.5035 77.5711L14.6271 64.1039L14.7026 75.9647C14.7026 76.378 14.4005 76.7089 14.0229 76.7206H13.6345V77.5711H17.9059V76.7206H17.3234C16.9569 76.7206 16.6546 76.378 16.6441 75.9764L16.6115 63.0643C16.6113 62.8681 16.681 62.6796 16.8058 62.5386C16.9306 62.3975 17.1008 62.315 17.2803 62.3084L17.9059 62.2964V61.4342H14.2602L9.44965 74.2993ZM42.9916 76.4961C42.8727 76.3661 42.8077 76.1887 42.8077 75.9755V69.6328C42.8077 68.4258 42.4835 67.4789 41.8346 66.8046C41.1964 66.1299 40.3098 65.7869 39.2069 65.7869C37.6602 65.7869 36.4384 66.4732 35.584 67.8222C35.5732 67.8459 35.5408 67.8578 35.5084 67.8578C35.4758 67.8578 35.4543 67.8339 35.4543 67.7985L35.0542 66.1063H34.3836L32.6642 67.1832V67.7749H33.1075C33.3131 67.7749 33.486 67.8339 33.6051 67.9525C33.724 68.0708 33.7888 68.2482 33.7888 68.4966V75.9637C33.7888 76.1767 33.724 76.3544 33.6051 76.4847C33.486 76.6147 33.3238 76.6857 33.1292 76.6857H32.6966V77.5494H36.6545V76.6857H36.2221C36.0273 76.6857 35.865 76.6147 35.7462 76.4847C35.6273 76.3544 35.5623 76.1767 35.5623 75.9637V71.0172C35.5623 70.3902 35.6921 69.7629 35.9301 69.1473C36.1788 68.5439 36.5463 68.035 37.033 67.6443C37.5196 67.254 38.1037 67.0646 38.7741 67.0646C39.5311 67.0646 40.1042 67.325 40.4611 67.8456C40.8179 68.3663 41.0018 69.0409 41.0018 69.8456V75.9518C41.0018 76.1648 40.937 76.3422 40.8179 76.4725C40.699 76.6027 40.5368 76.6735 40.342 76.6735H39.9096V77.5374H43.8675V76.6737H43.4351C43.2729 76.6974 43.1214 76.6264 42.9916 76.4961ZM79.1523 62.4004C78.0583 61.7643 76.8356 61.4342 75.5162 61.4342H70.368V62.2943H70.8719C71.0649 62.2943 71.2365 62.3767 71.4081 62.5651C71.569 62.742 71.6548 62.9423 71.6548 63.1543V75.8293C71.6548 76.0416 71.5692 76.2416 71.4081 76.4185C71.2473 76.5952 71.0649 76.6894 70.8719 76.6894H70.3678V77.5494H75.5162C76.8356 77.5494 78.0583 77.2195 79.1523 76.5832C80.2463 75.9472 81.1365 75.0046 81.78 73.8033C82.4237 72.6019 82.7562 71.1529 82.7562 69.5035C82.7562 67.8544 82.4237 66.4171 81.7802 65.204C81.126 63.979 80.246 63.0482 79.1523 62.4004ZM80.6865 69.4801C80.6865 70.9879 80.4398 72.2601 79.9569 73.285C79.4743 74.3098 78.8307 75.0754 78.0371 75.5704C77.2434 76.065 76.3637 76.3124 75.4199 76.3124H74.3795C74.1864 76.3124 74.0148 76.2299 73.8432 76.0416C73.6824 75.8647 73.5966 75.6646 73.5966 75.4526V63.4959C73.5966 63.2836 73.6716 63.0955 73.8432 62.9069C74.0041 62.7303 74.1864 62.6361 74.3795 62.6361H75.4199C76.3637 62.6361 77.2432 62.8832 78.0371 63.378C78.8307 63.8728 79.4743 64.6385 79.9569 65.6634C80.4395 66.6999 80.6865 67.984 80.6865 69.4801ZM94.9261 70.3401C94.45 69.7392 93.5309 69.2327 92.4504 68.9616C93.9425 68.1489 94.7094 67.0063 94.7094 65.5336C94.7094 64.7329 94.5157 64.0141 94.1257 63.4017C93.737 62.7893 93.1851 62.2943 92.4828 61.9527C91.7794 61.6111 90.9575 61.4344 90.0278 61.4344H84.2001V62.2943H84.6649C84.8595 62.2943 85.0327 62.3767 85.2056 62.5651C85.3678 62.742 85.4543 62.9423 85.4543 63.1543V75.8293C85.4543 76.0416 85.3678 76.2416 85.2056 76.4185C85.0434 76.5952 84.8595 76.6894 84.6649 76.6894H84.1568V77.5494H90.4825C91.4444 77.5494 92.3415 77.3728 93.1529 77.0192C93.964 76.6659 94.6126 76.1475 95.0778 75.4643C95.5531 74.7811 95.7911 73.9445 95.7911 72.9786C95.7803 71.9421 95.499 71.0584 94.9261 70.3401ZM87.6709 76.0533C87.5087 75.8766 87.4222 75.6763 87.4222 75.4643V69.7743H90.4282C91.4871 69.7743 92.2982 70.0688 92.8606 70.6576C93.4228 71.2468 93.7041 72.0124 93.7041 72.9549C93.7041 73.5202 93.5736 74.0741 93.3368 74.5806C93.0878 75.0988 92.7194 75.5112 92.2229 75.8293C91.7358 76.1472 91.1305 76.3124 90.4282 76.3124H88.2109C88.0165 76.3124 87.8434 76.2297 87.6704 76.053M87.4327 68.561V63.5076C87.4327 63.2956 87.5082 63.1072 87.6812 62.9186C87.8434 62.742 88.0273 62.6478 88.2219 62.6478H89.6493C90.6758 62.6478 91.4332 62.9306 91.9094 63.4725C92.3844 64.0261 92.6224 64.7329 92.6224 65.6044C92.6224 66.4998 92.3952 67.2184 91.9523 67.7602C91.5085 68.2902 90.8384 68.5612 89.952 68.5612L87.4327 68.561ZM27.924 66.5379C27.0978 66.045 26.1749 65.7864 25.177 65.7864C24.2055 65.7864 23.2949 66.0204 22.4948 66.4988L22.4302 66.5379C21.6039 67.031 20.9495 67.7471 20.4666 68.651C19.9839 69.555 19.737 70.6117 19.737 71.7855C19.737 72.9596 19.9837 74.0163 20.4666 74.9202C20.9495 75.8242 21.6039 76.5403 22.4302 77.0331C23.2565 77.5262 24.1793 77.7846 25.177 77.7846C26.1488 77.7846 27.0593 77.5509 27.8592 77.0727L27.924 77.0334C28.7501 76.5403 29.4048 75.8242 29.8877 74.9202C30.3703 74.0163 30.6172 72.9596 30.6172 71.7855C30.6172 70.6117 30.3703 69.555 29.8877 68.651C29.4048 67.7471 28.7503 67.0307 27.924 66.5379ZM28.7179 71.7857C28.7179 73.2299 28.3962 74.4037 27.7522 75.2491C27.1192 76.0943 26.2502 76.5286 25.177 76.5286C24.1233 76.5286 23.2661 76.1096 22.636 75.294L22.602 75.2491C21.9581 74.4037 21.6361 73.2299 21.6361 71.7857C21.6361 70.3682 21.9467 69.2107 22.5672 68.369L22.602 68.3226C23.2348 67.4775 24.1043 67.0429 25.177 67.0429C26.2502 67.0429 27.1192 67.4772 27.7522 68.3226C28.3962 69.168 28.7179 70.3418 28.7179 71.7857ZM65.9507 66.5381C65.1244 66.0453 64.2018 65.7866 63.2039 65.7866C62.2324 65.7866 61.3216 66.0206 60.5217 66.4991L60.4569 66.5381C59.6308 67.0312 58.9764 67.7473 58.4935 68.6513C58.0106 69.5552 57.7637 70.6119 57.7637 71.7857C57.7637 72.9598 58.0106 74.0165 58.4935 74.9205C58.9761 75.8244 59.6308 76.5405 60.4571 77.0334C61.2832 77.5265 62.206 77.7848 63.2039 77.7848C64.1755 77.7848 65.0862 77.5511 65.8862 77.0729L65.951 77.0336C66.777 76.5405 67.4315 75.8244 67.9144 74.9205C68.3972 74.0165 68.6439 72.9598 68.6439 71.7857C68.6439 70.6119 68.3972 69.5552 67.9144 68.6513C67.4317 67.7473 66.7663 67.031 65.9507 66.5381ZM66.7449 71.786C66.7449 73.2301 66.4229 74.4039 65.7791 75.2494C65.1459 76.0945 64.2769 76.5288 63.2039 76.5288C62.1499 76.5288 61.2928 76.1099 60.6629 75.2942L60.6287 75.2494C59.985 74.4039 59.663 73.2301 59.663 71.786C59.663 70.3567 59.9734 69.2105 60.5939 68.3692L60.6287 68.3229C61.2617 67.4777 62.131 67.0432 63.2039 67.0432C64.2769 67.0432 65.1459 67.4775 65.7791 68.3229C66.4121 69.1683 66.7449 70.3421 66.7449 71.786ZM50.6153 65.7871C49.7506 65.7871 48.9618 65.9874 48.2486 66.3886C47.5353 66.7894 46.9734 67.332 46.5736 68.0279C46.176 68.7031 45.9658 69.4896 45.9685 70.2923C45.9685 71.0235 46.1198 71.6957 46.4333 72.2974C46.7356 72.8751 47.1463 73.3587 47.6651 73.7596L46.1198 76.0477C45.9254 76.3307 45.9037 76.7081 46.0441 77.0148C46.1953 77.3332 46.4764 77.5218 46.8006 77.5218H47.2437C46.8295 77.8271 46.4945 78.1864 46.2581 78.61L46.2277 78.6659C45.9469 79.1729 45.8063 79.7038 45.8063 80.2462C45.8063 81.2424 46.2025 82.068 46.9843 82.6892L47.0274 82.7229C47.8274 83.3479 48.9511 83.6663 50.3666 83.6663C51.35 83.6663 52.2902 83.4895 53.144 83.1474C53.9837 82.8153 54.6704 82.3271 55.1845 81.6942L55.2292 81.6381C55.7588 80.9774 56.0291 80.1754 56.0291 79.2556C56.0291 78.2884 55.7049 77.6043 54.9485 76.9441C54.3001 76.3897 53.2843 76.095 52.0199 76.095H47.6976C47.6912 76.0944 47.6852 76.0917 47.6803 76.0872L47.6759 76.0831L47.6739 76.0782C47.6716 76.0706 47.6681 76.0562 47.6759 76.0477L48.7998 74.3966C49.066 74.532 49.345 74.6348 49.6319 74.7031C49.8911 74.7621 50.1829 74.7858 50.5071 74.7858C51.4148 74.7858 52.2362 74.5852 52.9494 74.1844C53.6626 73.7833 54.2353 73.2409 54.646 72.5448C55.0565 71.8609 55.2618 71.0943 55.2618 70.2806C55.2618 69.4079 54.873 67.8156 53.8139 67.0019C53.8139 66.9946 53.8177 66.9919 53.8208 66.9907L53.8246 66.99L56.148 67.273V66.1055H52.4306C51.8471 65.905 51.2418 65.7871 50.6153 65.7871ZM51.9119 73.1701C51.5012 73.4058 51.0584 73.5356 50.6153 73.5356C49.8913 73.5356 49.2536 73.2526 48.7133 72.6982C48.173 72.1439 47.9029 71.3302 47.9029 70.2923C47.9029 69.2544 48.173 68.4405 48.7133 67.8864C49.2536 67.332 49.8911 67.049 50.6153 67.049C51.0501 67.049 51.4653 67.1574 51.8605 67.3843L51.9119 67.4145C52.3226 67.6504 52.6576 68.0162 52.9277 68.4998C53.1869 68.9833 53.3277 69.5848 53.3277 70.2923C53.3277 71.0118 53.1979 71.6132 52.9277 72.0849C52.6685 72.5684 52.3226 72.9342 51.9119 73.1701ZM48.9835 77.5099H51.9119C52.7224 77.5099 53.2412 77.6868 53.5869 78.0642C53.9328 78.4417 54.1055 78.9487 54.1055 79.5384C54.1055 80.3994 53.7922 81.1072 53.1655 81.6376C52.5387 82.1685 51.6959 82.4396 50.6584 82.4396C49.7506 82.4396 48.9942 82.2156 48.443 81.7911C47.8919 81.3665 47.6111 80.7175 47.6111 79.8921C47.6111 79.3732 47.7407 78.8896 48.0001 78.4651C48.2593 78.0405 48.5728 77.7339 48.9832 77.5099" fill="#10AA50"/>
</svg>
