<svg width="96" height="96" viewBox="0 0 96 96" fill="none" xmlns="http://www.w3.org/2000/svg">
<g clip-path="url(#clip0_104_608)">
<path d="M85.7348 41.4405C85.696 41.4404 85.6582 41.4519 85.626 41.4735L83.8665 42.501C83.8334 42.5215 83.8062 42.5502 83.7875 42.5844C83.7688 42.6186 83.7594 42.657 83.76 42.696V44.751C83.76 44.838 83.8012 44.904 83.8665 44.9475L85.626 45.9735C85.6582 45.9951 85.696 46.0066 85.7348 46.0066C85.7735 46.0066 85.8114 45.9951 85.8435 45.9735L87.6 44.9475C87.6334 44.9265 87.6608 44.8974 87.6799 44.8629C87.6989 44.8284 87.7088 44.7896 87.7088 44.7502V42.6975C87.7092 42.6583 87.6993 42.6197 87.6803 42.5855C87.6612 42.5513 87.6335 42.5227 87.6 42.5025L85.8428 41.4742C85.8108 41.4528 85.7732 41.4406 85.7348 41.4405ZM47.415 53.7285C47.0948 53.7285 46.776 53.8065 46.5045 53.9595L37.8428 59.0047C37.5652 59.1678 37.3352 59.4006 37.1754 59.68C37.0157 59.9595 36.9319 60.2759 36.9323 60.5977V70.665C36.9323 71.3205 37.2788 71.9325 37.8428 72.261L40.1228 73.5705C41.2298 74.1165 41.6205 74.115 42.1193 74.115C43.7468 74.115 44.6805 73.1107 44.6805 71.385V61.4512C44.6795 61.3821 44.6518 61.316 44.6031 61.2669C44.5545 61.2178 44.4886 61.1895 44.4195 61.188H43.314C43.2446 61.1892 43.1784 61.2173 43.1294 61.2664C43.0804 61.3156 43.0525 61.3818 43.0515 61.4512V71.3872C43.0515 72.1515 42.2498 72.9172 40.9695 72.2625L38.6033 70.8862C38.5163 70.8427 38.472 70.7317 38.472 70.6447V60.5752C38.472 60.4882 38.5163 60.3802 38.6033 60.336L47.262 55.3132C47.3273 55.2697 47.4368 55.2697 47.5238 55.3132L56.1848 60.336C56.271 60.3802 56.3138 60.4665 56.3138 60.576V70.644C56.3138 70.7527 56.271 70.842 56.1848 70.8855L47.5238 75.9307C47.4585 75.9742 47.349 75.9742 47.262 75.9307L45.0488 74.5965C44.9835 74.553 44.8965 74.5312 44.8313 74.5747C44.2238 74.9242 44.1173 74.97 43.5308 75.1665C43.4003 75.21 43.1835 75.2962 43.617 75.5362L46.5045 77.2627C46.7865 77.415 47.0895 77.502 47.415 77.502C47.7405 77.502 48.0653 77.4157 48.3255 77.307L56.9873 72.2617C57.2652 72.0984 57.4956 71.8652 57.6553 71.5851C57.8151 71.3051 57.8987 70.9881 57.8978 70.6657V60.5977C57.8978 59.9422 57.5513 59.3325 56.9873 59.0047L48.3255 53.9595C48.0465 53.8065 47.7332 53.727 47.415 53.7285ZM60.9375 58.326C60.493 58.3278 60.0674 58.506 59.7542 58.8214C59.441 59.1368 59.2659 59.5637 59.2673 60.0082C59.2661 60.4526 59.4413 60.8793 59.7545 61.1946C60.0676 61.5099 60.4931 61.688 60.9375 61.6897C61.8503 61.6897 62.6085 60.9255 62.6085 60.0082C62.6062 59.5648 62.4297 59.14 62.1171 58.8255C61.8046 58.511 61.3809 58.3311 60.9375 58.326ZM60.915 58.6102C61.0999 58.608 61.2834 58.6424 61.4548 58.7117C61.6263 58.781 61.7822 58.8836 61.9137 59.0137C62.0451 59.1438 62.1493 59.2987 62.2203 59.4695C62.2913 59.6402 62.3277 59.8233 62.3272 60.0082C62.3272 60.7732 61.6973 61.4287 60.9158 61.4287C60.1568 61.4287 59.5268 60.7942 59.5268 60.0082C59.5268 59.2222 60.1778 58.6102 60.915 58.6102ZM60.3083 59.0685V60.99H60.6788V60.228H61.0042C61.1347 60.228 61.1775 60.2715 61.1993 60.3802C61.1993 60.4027 61.2637 60.8827 61.2637 60.9697H61.6538C61.6103 60.8827 61.5885 60.6202 61.5667 60.4672C61.5457 60.2272 61.5247 60.0525 61.2637 60.0307C61.3942 59.9865 61.611 59.9212 61.611 59.5717C61.611 59.0692 61.176 59.0692 60.96 59.0692L60.3083 59.0685ZM60.6345 59.3745H60.9375C61.047 59.3745 61.2195 59.3745 61.2195 59.6362C61.2195 59.7232 61.1775 59.8995 60.9375 59.8995H60.6338L60.6345 59.3745ZM49.782 60.882C47.307 60.882 45.831 61.9305 45.831 63.6997C45.831 65.6002 47.307 66.1222 49.6733 66.363C52.5158 66.6472 52.7333 67.0627 52.7333 67.6305C52.7333 68.613 51.9503 69.0285 50.127 69.0285C47.826 69.0285 47.3273 68.46 47.1533 67.3027C47.1533 67.1715 47.0468 67.0852 46.9163 67.0852H45.7875C45.7185 67.086 45.6526 67.1139 45.6041 67.1629C45.5555 67.2119 45.5282 67.278 45.528 67.347C45.528 68.832 46.3088 70.5795 50.1083 70.5795C52.842 70.5795 54.4268 69.486 54.4268 67.5645C54.4268 65.6857 53.1668 65.184 50.4983 64.8345C47.8058 64.485 47.5245 64.2885 47.5245 63.6555C47.5245 63.1312 47.763 62.433 49.7595 62.433C51.5393 62.433 52.2113 62.8267 52.4723 64.0275C52.4853 64.0817 52.5158 64.1301 52.559 64.1653C52.6022 64.2005 52.6558 64.2206 52.7115 64.2225H53.8613C53.9273 64.2225 53.9925 64.1797 54.0368 64.1362C54.0761 64.0778 54.0982 64.0094 54.1005 63.939C53.9273 61.8427 52.5608 60.882 49.782 60.882Z" fill="#5FA04E"/>
<path d="M64.554 18.498C64.4617 18.4966 64.3706 18.5197 64.29 18.5647C64.2062 18.6139 64.1364 18.6837 64.0872 18.7674C64.038 18.8512 64.011 18.9461 64.0087 19.0432V33.24C64.0087 33.3705 63.9412 33.5025 63.8115 33.5895C63.7515 33.6216 63.6845 33.6385 63.6165 33.6385C63.5484 33.6385 63.4815 33.6216 63.4215 33.5895L61.122 32.2582C60.9532 32.1618 60.7621 32.1111 60.5677 32.1111C60.3733 32.1111 60.1823 32.1618 60.0135 32.2582L50.8125 37.6095C50.6422 37.7055 50.5003 37.8448 50.4012 38.0132C50.302 38.1816 50.2491 38.3733 50.2477 38.5687V49.2487C50.2477 49.6417 50.4652 50.0137 50.8125 50.2102L60.015 55.5615C60.1837 55.6578 60.3746 55.7084 60.5689 55.7084C60.7631 55.7084 60.954 55.6578 61.1227 55.5615L70.3245 50.2102C70.6717 50.0137 70.8892 49.6417 70.8892 49.2487V22.626C70.8892 22.2112 70.6717 21.8385 70.3245 21.6427L64.8345 18.5647C64.7476 18.5212 64.6511 18.4984 64.554 18.498ZM10.2652 31.8225C10.092 31.8225 9.91875 31.8855 9.76725 31.9725L0.564747 37.3042C0.391793 37.4027 0.248258 37.5455 0.148975 37.7179C0.0496908 37.8904 -0.00173996 38.0862 -3.20398e-06 38.2852L0.0224968 52.6117C0.0224968 52.809 0.129747 53.0055 0.303747 53.0932C0.384411 53.1461 0.478778 53.1743 0.575247 53.1743C0.671716 53.1743 0.766083 53.1461 0.846747 53.0932L6.31725 49.9485C6.6645 49.752 6.87975 49.38 6.87975 48.987V42.282C6.87975 41.889 7.09725 41.517 7.44525 41.3205L9.76725 39.9667C9.9405 39.8572 10.137 39.8137 10.332 39.8137C10.527 39.8137 10.7227 39.8572 10.875 39.9667L13.197 41.3205C13.5442 41.517 13.7617 41.889 13.7617 42.282V48.987C13.7617 49.38 13.9777 49.752 14.3242 49.9485L19.7512 53.0932C19.8356 53.147 19.9336 53.1756 20.0336 53.1756C20.1337 53.1756 20.2316 53.147 20.316 53.0932C20.4024 53.0463 20.4743 52.9766 20.524 52.8917C20.5737 52.8069 20.5993 52.7101 20.598 52.6117V38.2852C20.598 37.8922 20.3805 37.5202 20.0325 37.323L10.8525 31.9725C10.6978 31.8904 10.5287 31.8392 10.3545 31.8217L10.2652 31.8225ZM85.7655 31.98C85.5757 31.98 85.3875 32.0295 85.2135 32.1285L76.0095 37.4767C75.6622 37.6732 75.447 38.0452 75.447 38.439V49.119C75.447 49.512 75.6622 49.884 76.0095 50.0805L85.1475 55.3207C85.312 55.4172 85.4994 55.4681 85.6901 55.4681C85.8809 55.4681 86.0682 55.4172 86.2327 55.3207L91.7677 52.221C91.854 52.1739 91.9258 52.1042 91.9753 52.0193C92.0249 51.9345 92.0504 51.8377 92.049 51.7395C92.0501 51.6415 92.0245 51.545 91.9749 51.4605C91.9254 51.3759 91.8538 51.3064 91.7677 51.2595L82.5225 45.9075C82.4384 45.8581 82.3684 45.788 82.3192 45.7038C82.2699 45.6196 82.2431 45.5242 82.2412 45.4267V42.0847C82.2402 41.9867 82.2658 41.8903 82.3153 41.8057C82.3648 41.7212 82.4365 41.6517 82.5225 41.6047L85.41 39.9442C85.4943 39.8904 85.5923 39.8618 85.6924 39.8618C85.7924 39.8618 85.8904 39.8904 85.9747 39.9442L88.8592 41.604C88.9437 41.6531 89.0142 41.7231 89.0639 41.8073C89.1135 41.8915 89.1407 41.987 89.1427 42.0847V44.706C89.1427 44.9032 89.2507 45.0997 89.424 45.1867C89.5084 45.2407 89.6065 45.2694 89.7067 45.2694C89.807 45.2694 89.9051 45.2407 89.9895 45.1867L95.4577 41.9767C95.6254 41.8789 95.7641 41.7382 95.8595 41.5691C95.9549 41.4 96.0037 41.2086 96.0008 41.0145V38.4157C96.0008 38.0227 95.7832 37.653 95.4577 37.4557L86.3197 32.1277C86.1512 32.0313 85.9605 31.9801 85.7663 31.9792L85.7655 31.98ZM60.5677 39.9555C60.6165 39.9555 60.666 39.9667 60.7102 39.9892L63.8557 41.8237C63.9427 41.8672 63.987 41.9752 63.987 42.063V45.732C63.987 45.8415 63.9427 45.93 63.8557 45.9735L60.7095 47.808C60.6654 47.8296 60.6169 47.8408 60.5677 47.8408C60.5186 47.8408 60.4701 47.8296 60.426 47.808L57.2797 45.9735C57.1927 45.93 57.1485 45.8197 57.1485 45.732V42.063C57.1485 41.9535 57.1935 41.8672 57.2797 41.823L60.426 39.9892C60.47 39.9664 60.5182 39.9548 60.5677 39.9555Z" fill="#6ABF4B"/>
<path d="M35.9865 32.1698C35.8181 32.0729 35.6273 32.0219 35.433 32.0219C35.2387 32.0219 35.0479 32.0729 34.8795 32.1698L25.7415 37.4775C25.574 37.5752 25.4355 37.7157 25.3401 37.8845C25.2447 38.0533 25.1958 38.2444 25.1985 38.4383V49.074C25.1985 49.4678 25.416 49.839 25.7415 50.0355L34.8795 55.3425C35.0479 55.4394 35.2387 55.4904 35.433 55.4904C35.6273 55.4904 35.8181 55.4394 35.9865 55.3425L45.1237 50.0355C45.471 49.839 45.6667 49.4678 45.6667 49.074V38.4383C45.6667 38.0453 45.4492 37.6733 45.1237 37.4775L35.9865 32.1698Z" fill="url(#paint0_linear_104_608)"/>
<path d="M45.1455 37.4775L35.9648 32.1697C35.8747 32.1241 35.7802 32.0876 35.6828 32.061L25.3943 49.773C25.4813 49.8825 25.5893 49.9695 25.698 50.0355L34.8795 55.3425C35.1398 55.4955 35.4435 55.539 35.7255 55.4512L45.3848 37.674C45.3213 37.5908 45.2394 37.5236 45.1455 37.4775Z" fill="url(#paint1_linear_104_608)"/>
<path d="M45.1455 50.0348C45.4065 49.8818 45.6015 49.62 45.6885 49.3358L35.6385 32.0385C35.379 31.995 35.0963 32.0168 34.8578 32.1698L25.7415 37.455L35.574 55.4948C35.7038 55.473 35.856 55.4295 35.9865 55.3635L45.1455 50.0348Z" fill="url(#paint2_linear_104_608)"/>
</g>
<defs>
<linearGradient id="paint0_linear_104_608" x1="39.154" y1="36.122" x2="30.8089" y2="53.0404" gradientUnits="userSpaceOnUse">
<stop stop-color="#3F873F"/>
<stop offset="0.33" stop-color="#3F8B3D"/>
<stop offset="0.637" stop-color="#3E9638"/>
<stop offset="0.934" stop-color="#3DA92E"/>
<stop offset="1" stop-color="#3DAE2B"/>
</linearGradient>
<linearGradient id="paint1_linear_104_608" x1="34.0444" y1="44.9981" x2="57.3283" y2="27.9005" gradientUnits="userSpaceOnUse">
<stop offset="0.138" stop-color="#3F873F"/>
<stop offset="0.402" stop-color="#52A044"/>
<stop offset="0.713" stop-color="#64B749"/>
<stop offset="0.908" stop-color="#6ABF4B"/>
</linearGradient>
<linearGradient id="paint2_linear_104_608" x1="24.8642" y1="43.7525" x2="46.0085" y2="43.7525" gradientUnits="userSpaceOnUse">
<stop offset="0.092" stop-color="#6ABF4B"/>
<stop offset="0.287" stop-color="#64B749"/>
<stop offset="0.598" stop-color="#52A044"/>
<stop offset="0.862" stop-color="#3F873F"/>
</linearGradient>
<clipPath id="clip0_104_608">
<rect width="96" height="96" fill="white"/>
</clipPath>
</defs>
</svg>
