<svg width="59" height="72" viewBox="0 0 59 72" fill="none" xmlns="http://www.w3.org/2000/svg">
<path d="M29.1319 31.3598C32.0476 31.3598 34.4113 28.9729 34.4113 26.0285C34.4113 23.0841 32.0476 20.6973 29.1319 20.6973C26.2162 20.6973 23.8526 23.0841 23.8526 26.0285C23.8526 28.9729 26.2162 31.3598 29.1319 31.3598Z" fill="#61DAFB"/>
<path d="M29.1319 45.6337C33.2759 49.7038 37.3632 52.1114 40.6557 52.1114C41.7343 52.1114 42.7561 51.8821 43.6076 51.3662C46.5595 49.6465 47.6381 45.3471 46.6162 39.2133C46.4459 38.1241 46.2189 37.0349 45.935 35.8884C47.0704 35.5444 48.0922 35.2005 49.114 34.8565C54.8475 32.6209 58.0265 29.5253 58.0265 26.1431C58.0265 22.7036 54.8475 19.608 49.114 17.4297C48.0922 17.0284 47.0704 16.6844 45.935 16.3978C46.2189 15.2513 46.4459 14.1621 46.6162 13.073C47.5813 6.82451 46.5027 2.46779 43.5508 0.748036C42.6993 0.232109 41.6775 0.00280762 40.5989 0.00280762C37.3632 0.00280762 33.2192 2.41047 29.0752 6.48056C24.9879 2.41047 20.9007 0.00280762 17.6082 0.00280762C16.5296 0.00280762 15.5078 0.232109 14.6563 0.748036C11.7044 2.46779 10.6258 6.76718 11.6476 12.901C11.8179 13.9902 12.045 15.0793 12.3288 16.2258C11.1935 16.5698 10.1717 16.9137 9.14988 17.2577C3.41639 19.4934 0.237427 22.5889 0.237427 25.9711C0.237427 29.4107 3.41639 32.5062 9.14988 34.6846C10.1717 35.0858 11.1935 35.4298 12.3288 35.7164C12.045 36.8629 11.8179 37.9521 11.6476 39.0413C10.6826 45.1751 11.7612 49.5318 14.6563 51.1942C15.5078 51.7102 16.5296 51.9395 17.6082 51.9395C20.9007 52.0541 24.9879 49.6465 29.1319 45.6337ZM25.953 37.8948C26.9748 37.9521 28.0534 37.9521 29.1319 37.9521C30.2105 37.9521 31.2891 37.9521 32.3109 37.8948C31.2891 39.2706 30.2105 40.5317 29.1319 41.7356C28.0534 40.5317 26.9748 39.2706 25.953 37.8948ZM18.9138 31.9903C19.4815 32.9648 19.9924 33.882 20.6169 34.7992C18.8571 34.5699 17.2108 34.2833 15.6213 33.9393C16.1322 32.3916 16.6999 30.7865 17.3811 29.1813C17.8353 30.0986 18.3462 31.0731 18.9138 31.9903ZM15.6213 18.1749C17.2108 17.831 18.8571 17.5443 20.6169 17.315C20.0492 18.2322 19.4815 19.1494 18.9138 20.124C18.3462 21.0985 17.8353 22.0157 17.3811 22.9902C16.6432 21.3278 16.0755 19.7227 15.6213 18.1749ZM18.7435 26.0285C19.4815 24.4807 20.2763 22.9329 21.1845 21.3851C22.036 19.8947 23.0011 18.4042 23.9661 16.9137C25.6691 16.7991 27.3722 16.7418 29.1319 16.7418C30.9485 16.7418 32.6515 16.7991 34.2978 16.9137C35.3196 18.4042 36.2278 19.8947 37.0794 21.3851C37.9876 22.9329 38.7824 24.4807 39.5203 26.0285C38.7824 27.5762 37.9876 29.124 37.0794 30.6718C36.2278 32.1623 35.2628 33.6527 34.2978 35.1432C32.5947 35.2578 30.8917 35.3151 29.1319 35.3151C27.3154 35.3151 25.6124 35.2578 23.9661 35.1432C22.9443 33.6527 22.036 32.1623 21.1845 30.6718C20.2763 29.124 19.4815 27.5762 18.7435 26.0285ZM40.9395 22.9329L39.4068 20.0666C38.8391 19.0921 38.3282 18.1749 37.7038 17.2577C39.4636 17.487 41.1098 17.7736 42.6993 18.1176C42.1884 19.7227 41.6207 21.3278 40.9395 22.9329ZM40.9395 29.124C41.6207 30.7291 42.1884 32.3342 42.6993 33.882C41.1098 34.226 39.4636 34.5126 37.7038 34.7419C38.2715 33.8247 38.8391 32.9075 39.4068 31.933C39.9177 31.0731 40.4286 30.0986 40.9395 29.124ZM42.2452 49.0159C41.791 49.3025 41.2234 49.4172 40.5989 49.4172C37.8173 49.4172 34.3545 47.1241 30.9485 43.6846C32.5947 41.9076 34.1842 39.9012 35.7737 37.6655C38.4418 37.4362 40.9963 37.0349 43.3805 36.4617C43.6643 37.4935 43.8347 38.5254 44.005 39.5572C44.7997 44.4299 44.1753 47.9267 42.2452 49.0159ZM45.1971 18.8055C51.555 20.6399 55.3584 23.4488 55.3584 26.0285C55.3584 28.2641 52.7471 30.4998 48.149 32.2769C47.2407 32.6209 46.2189 32.9648 45.1971 33.2514C44.4591 30.9011 43.5508 28.4934 42.4155 26.0285C43.5508 23.5635 44.5159 21.1558 45.1971 18.8055ZM40.6557 2.63977C41.2801 2.63977 41.791 2.75442 42.3019 3.04104C44.1753 4.13022 44.8565 7.56974 44.0617 12.4997C43.8914 13.4742 43.6643 14.5061 43.4373 15.5953C41.0531 15.0793 38.4985 14.6781 35.8305 14.3914C34.2978 12.1558 32.6515 10.1494 31.0053 8.37229C34.4113 4.9901 37.8741 2.63977 40.6557 2.63977ZM32.3109 14.1621C31.2891 14.1048 30.2105 14.1048 29.1319 14.1048C28.0534 14.1048 26.9748 14.1048 25.953 14.1621C26.9748 12.7863 28.0534 11.5252 29.1319 10.3213C30.2105 11.5252 31.2891 12.8437 32.3109 14.1621ZM16.0187 3.04104C16.4729 2.75442 17.0405 2.63977 17.665 2.63977C20.4466 2.63977 23.9094 4.93278 27.3154 8.37229C25.6691 10.1494 24.0797 12.1558 22.4902 14.3914C19.8221 14.6207 17.2676 15.022 14.8834 15.5953C14.5995 14.5634 14.4292 13.5316 14.2589 12.4997C13.4642 7.62706 14.0886 4.18755 16.0187 3.04104ZM13.0668 33.2514C6.70889 31.417 2.90549 28.6081 2.90549 26.0285C2.90549 23.7928 5.51678 21.5571 10.1149 19.78C11.0232 19.4361 12.045 19.0921 13.0668 18.8055C13.8048 21.1558 14.7131 23.5635 15.8484 26.0285C14.7131 28.4934 13.748 30.9584 13.0668 33.2514ZM14.2589 39.5572C14.4292 38.5827 14.6563 37.5508 14.8834 36.4617C17.2676 36.9776 19.8221 37.3789 22.4902 37.6655C24.0229 39.9012 25.6691 41.9076 27.3154 43.6846C23.9094 47.0668 20.4466 49.4172 17.665 49.4172C17.0405 49.4172 16.5296 49.3025 16.0187 49.0159C14.0886 47.9267 13.4642 44.4299 14.2589 39.5572ZM11.8747 63.1752C13.1236 61.6274 13.1804 59.9077 12.4991 58.1879C11.8179 56.4682 10.3988 55.6656 8.63898 55.6083C6.53859 55.551 4.38143 55.6083 2.28105 55.6083H1.88368V70.4555H3.58669V64.8376H6.25475C6.59536 64.8376 6.87919 64.9523 7.04949 65.2389L10.4555 70.5702C10.5123 70.6848 10.6826 70.8568 10.7961 70.8568H13.01C11.6476 68.7358 10.342 66.7294 8.97958 64.6657C10.1717 64.4937 11.1935 64.0924 11.8747 63.1752ZM3.58669 63.0606V57.3854H4.21113C5.51678 57.3854 6.87919 57.328 8.18484 57.4427C9.71755 57.5 10.7961 58.7038 10.7961 60.2516C10.7961 61.7994 9.54725 63.0032 8.01453 63.0606C6.65212 63.1179 5.28971 63.0606 3.58669 63.0606ZM25.5556 63.8058C24.6473 59.793 21.0142 58.7612 18.2326 60.0223C16.0755 60.9968 15.1104 62.8886 15.0537 65.2389C14.9969 67.016 15.5078 68.6211 16.8702 69.8249C18.4029 71.2007 20.2763 71.3727 22.2063 71.0288C23.2849 70.7995 24.25 70.2835 24.9879 69.481C24.7041 69.0797 24.4203 68.6784 24.1364 68.3345C22.5469 69.7103 20.7872 70.1689 18.8571 69.2517C17.6082 68.6211 16.9838 67.0733 16.8702 65.9268H25.6691V65.1816C25.7259 64.6657 25.6691 64.2071 25.5556 63.8058ZM16.9838 64.723C16.8135 63.0032 18.5165 61.1688 20.3898 61.1688C22.5469 61.1115 23.9094 62.43 23.9661 64.723H16.9838ZM34.4113 59.7357C33.5598 59.5637 32.6515 59.5064 31.8 59.5637C30.4376 59.6784 29.2455 60.3089 28.2804 61.3408C28.5643 61.7421 28.7913 62.1434 29.1319 62.602C29.2455 62.4873 29.359 62.3727 29.4725 62.3153C30.3808 61.4555 31.4594 60.9968 32.765 61.1115C33.7869 61.1688 34.7519 61.5128 35.0357 62.5446C35.2628 63.3472 35.206 64.2071 35.2628 65.0669C35.0925 65.0669 35.0357 65.0096 34.979 64.9523C33.6166 63.8058 32.0838 63.5765 30.4376 63.9778C28.9049 64.379 27.9398 65.5829 27.8263 67.1306C27.7128 68.9077 28.5075 70.2262 30.0402 70.8568C31.0053 71.2581 32.0838 71.2581 33.1056 71.0288C33.9004 70.8568 34.241 70.3982 35.3763 69.7676V70.5128H36.9658C36.9658 68.2198 37.0226 65.4109 36.9658 62.7739C36.9658 61.1115 36.0008 60.0796 34.4113 59.7357ZM35.206 66.9587C35.1493 67.1306 35.206 67.3026 35.206 67.4746C35.206 68.6784 34.9222 69.0797 33.7869 69.5383C32.9921 69.8249 32.1406 69.9396 31.2891 69.653C30.3241 69.3663 29.6428 68.5065 29.6428 67.5319C29.5861 66.5574 30.2105 65.5829 31.1756 65.2962C32.4812 64.8376 33.6733 65.1243 34.7519 65.9268C35.0925 66.2134 35.3196 66.5001 35.206 66.9587ZM44.0617 61.2835C45.5377 60.8249 46.9001 61.1115 47.9219 62.3727L48.0922 62.4873C48.4896 62.1434 48.8302 61.7994 49.2843 61.3981C49.114 61.2261 49.0572 61.1115 48.9437 60.9395C47.2975 59.1624 44.0617 58.9331 42.0749 60.3663C39.2933 62.43 39.35 66.4427 40.7125 68.5638C42.0181 70.5702 43.8914 71.2581 46.1053 70.9714C47.411 70.7995 48.4896 70.1689 49.3411 69.0797C48.9437 68.7358 48.5463 68.3918 48.149 67.9905C48.0354 68.1052 47.9787 68.1625 47.9219 68.2772C46.3892 69.9969 43.8347 69.8249 42.4722 67.9905C41.6775 66.9013 41.5072 65.6402 41.7343 64.379C41.8478 62.9459 42.5858 61.7994 44.0617 61.2835ZM55.8693 69.0797C55.7558 69.137 55.699 69.1944 55.699 69.1944C55.2449 69.5383 54.7907 69.5956 54.2798 69.4237C53.7689 69.1944 53.7121 68.7358 53.6554 68.2772V61.7421C53.6554 61.6274 53.6554 61.8567 53.7122 61.2835H55.8693V59.5637H53.5986V56.6975H51.8956V59.793H50.4197C50.3061 59.793 50.1358 59.9077 50.1358 60.0223C50.079 60.4236 50.1358 60.7102 50.1358 61.2835H51.9524V68.6211C51.9524 69.5383 52.1794 70.3409 52.9742 70.7995C53.8257 71.3154 55.4719 71.2007 56.2099 70.5702C56.3234 70.5128 56.3802 70.2835 56.3802 70.2262C56.2099 69.8823 56.0396 69.481 55.8693 69.0797Z" fill="#61DAFB"/>
</svg>
