<svg width="40" height="40"  fill="none" xmlns="http://www.w3.org/2000/svg">
<g clip-path="url(#clip0_104_616)">
<path d="M30.625 0H9.375C4.19733 0 0 4.19733 0 9.375V30.625C0 35.8027 4.19733 40 9.375 40H30.625C35.8027 40 40 35.8027 40 30.625V9.375C40 4.19733 35.8027 0 30.625 0Z" fill="#CD6799"/>
<mask id="mask0_104_616" style="mask-type:luminance" maskUnits="userSpaceOnUse" x="4" y="8" width="32" height="24">
<path d="M4.375 8.28125H35.625V31.7045H4.375V8.28125Z" fill="white"/>
</mask>
<g mask="url(#mask0_104_616)">
<path d="M31.2667 21.7442C30.177 21.7499 29.2301 22.0124 28.4372 22.4002C28.1462 21.8241 27.8553 21.3106 27.8039 20.9341C27.7469 20.4949 27.6784 20.2267 27.7469 19.7019C27.8153 19.177 28.1234 18.4299 28.1176 18.3728C28.112 18.3156 28.0492 18.0477 27.4217 18.0419C26.7942 18.0363 26.2523 18.1617 26.1895 18.3272C26.1267 18.4925 26.007 18.8691 25.9272 19.257C25.8187 19.8275 24.672 21.8641 24.0161 22.9308C23.805 22.5144 23.6225 22.1492 23.5825 21.8583C23.5254 21.4191 23.457 21.1509 23.5254 20.6261C23.5939 20.1013 23.902 19.3539 23.8962 19.2969C23.8906 19.2399 23.8278 18.9717 23.2003 18.9661C22.5728 18.9603 22.0308 19.0858 21.9681 19.2513C21.9053 19.4167 21.8369 19.8047 21.7056 20.1811C21.5745 20.5577 20.0514 23.9577 19.652 24.8361C19.4906 25.1916 19.3214 25.5435 19.1444 25.8914C19.1444 25.8914 19.1386 25.9086 19.1215 25.937C19.0659 26.0462 19.0088 26.1546 18.9503 26.2622V26.268C18.8648 26.422 18.7734 26.5645 18.7278 26.5645C18.6936 26.5645 18.6309 26.1539 18.7392 25.5949C18.9675 24.4139 19.5094 22.577 19.5037 22.5144C19.5037 22.4802 19.6064 22.1606 19.15 21.9952C18.705 21.8297 18.5453 22.1036 18.5053 22.1036C18.4654 22.1036 18.4369 22.2006 18.4369 22.2006C18.4369 22.2006 18.9333 20.1355 17.49 20.1355C16.5886 20.1355 15.345 21.1224 14.729 22.0124C14.0286 22.3935 13.3288 22.7757 12.6295 23.1589C12.2931 23.3472 11.9451 23.5355 11.6198 23.7124C11.597 23.6895 11.5742 23.6609 11.5514 23.6381C9.80576 21.7727 6.57701 20.455 6.71388 17.9506C6.76529 17.0378 7.07904 14.6419 12.9148 11.7325C17.7181 9.36516 21.5403 10.0211 22.202 11.4758C23.1489 13.5524 20.154 17.4086 15.1911 17.9677C13.297 18.1788 12.3045 17.4486 12.0536 17.1749C11.7911 16.8895 11.7511 16.8725 11.654 16.9295C11.4944 17.015 11.597 17.2717 11.654 17.42C11.8025 17.808 12.4128 18.4925 13.4453 18.8291C14.3581 19.1258 16.5772 19.2913 19.264 18.253C22.2704 17.0892 24.6208 13.8545 23.9304 11.145C23.2403 8.39532 18.6765 7.48829 14.3581 9.02282C11.7909 9.93563 9.00716 11.3731 7.00482 13.2442C4.62591 15.4692 4.24951 17.403 4.40357 18.213C4.95685 21.0881 8.92154 22.9592 10.5075 24.3455C10.4276 24.3911 10.3534 24.4311 10.2908 24.4653C9.49779 24.8589 6.47435 26.4391 5.72123 28.1106C4.8656 30.0045 5.85826 31.3622 6.5142 31.5447C8.55076 32.1095 10.6444 31.0941 11.7683 29.4169C12.892 27.7397 12.7551 25.5606 12.2359 24.5624C12.2304 24.5497 12.2226 24.5381 12.2131 24.5281C12.4186 24.4083 12.6295 24.2828 12.835 24.163C13.2125 23.9399 13.5948 23.7249 13.9815 23.5183C13.7876 24.0489 13.645 24.682 13.5765 25.5949C13.4911 26.6674 13.9303 28.0592 14.5064 28.6069C14.7631 28.8464 15.0654 28.8522 15.2595 28.8522C15.9326 28.8522 16.235 28.2931 16.5715 27.6314C16.9822 26.8213 17.3531 25.88 17.3531 25.88C17.3531 25.88 16.8909 28.4244 18.1459 28.4244C18.6023 28.4244 19.0644 27.8311 19.2698 27.5288V27.5344C19.2698 27.5344 19.2812 27.5174 19.304 27.4774C19.3497 27.4031 19.3781 27.3575 19.3781 27.3575V27.3461C19.5608 27.0267 19.9714 26.3022 20.5819 25.0984C21.369 23.5469 22.1278 21.6074 22.1278 21.6074C22.1278 21.6074 22.1962 22.0808 22.4301 22.868C22.567 23.3302 22.8523 23.8378 23.0804 24.3284C22.8979 24.5852 22.7839 24.7277 22.7839 24.7277L22.7895 24.7334C22.6412 24.9274 22.4815 25.1384 22.3047 25.3438C21.6828 26.0855 20.9412 26.9355 20.8386 27.1808C20.7187 27.4717 20.7473 27.6827 20.9754 27.8539C21.1409 27.9794 21.4375 27.9964 21.7398 27.9794C22.2989 27.9394 22.6926 27.8025 22.8865 27.7169C23.1889 27.6086 23.5426 27.4431 23.8734 27.1978C24.4839 26.7472 24.8547 26.1025 24.8204 25.2525C24.8033 24.7847 24.6492 24.317 24.4611 23.8777C24.5181 23.7978 24.5694 23.718 24.6264 23.6381C25.5906 22.2291 26.3378 20.6831 26.3378 20.6831C26.3378 20.6831 26.4062 21.1566 26.6401 21.9439C26.7542 22.3431 26.9881 22.7767 27.1936 23.1989C26.2865 23.9349 25.7275 24.7905 25.5278 25.3495C25.1684 26.3878 25.4479 26.8555 25.9784 26.9639C26.2181 27.0153 26.5603 26.9013 26.8114 26.7928C27.1308 26.6902 27.5073 26.5133 27.8667 26.2508C28.477 25.8002 29.0647 25.1727 29.0304 24.3227C29.0133 23.9348 28.9106 23.5525 28.7679 23.1817C29.5381 22.8624 30.5308 22.6855 31.7972 22.8338C34.5126 23.1533 35.0489 24.8475 34.9461 25.5606C34.8434 26.2736 34.2729 26.6616 34.0847 26.7814C33.8965 26.9013 33.8337 26.9411 33.8509 27.0267C33.8737 27.1522 33.965 27.1464 34.1247 27.1236C34.3472 27.0838 35.5508 26.5475 35.6022 25.2355C35.6878 23.5583 34.0904 21.727 31.2667 21.7442ZM10.3192 28.8066C9.41794 29.7877 8.16294 30.1586 7.62091 29.8449C7.03904 29.5081 7.26716 28.0592 8.37404 27.0209C9.04701 26.3878 9.9142 25.8002 10.4903 25.4408C10.6215 25.3609 10.8154 25.2469 11.0494 25.1042C11.0894 25.0814 11.1122 25.07 11.1122 25.07L11.249 24.9844C11.654 26.4677 11.2661 27.7741 10.3192 28.8066ZM16.8797 24.3455C16.5659 25.11 15.91 27.0666 15.5106 26.9583C15.1684 26.8669 14.9573 25.3838 15.4422 23.9177C15.6875 23.1817 16.2065 22.3033 16.5089 21.9609C16.9995 21.4133 17.5414 21.2308 17.6726 21.4533C17.8381 21.7442 17.0737 23.8663 16.8797 24.3455ZM22.2934 26.9355C22.1622 27.0039 22.0367 27.0495 21.9797 27.0153C21.9397 26.9925 22.0367 26.9013 22.0367 26.9013C22.0367 26.9013 22.7156 26.1709 22.9837 25.8402C23.1376 25.6461 23.3203 25.418 23.5142 25.1613V25.2355C23.5142 26.1083 22.67 26.6958 22.2934 26.9355ZM26.4692 25.9827C26.3722 25.9142 26.3894 25.6861 26.7145 24.973C26.84 24.6934 27.1367 24.2258 27.6444 23.775C27.7014 23.9577 27.7414 24.1344 27.7356 24.2999C27.73 25.4009 26.9426 25.8116 26.4692 25.9827Z" fill="white"/>
</g>
</g>
<defs>
<clipPath id="clip0_104_616">
<rect width="40" height="40" fill="white"/>
</clipPath>
</defs>
</svg>
