<svg width="41" height="26" viewBox="0 0 41 26" fill="none" xmlns="http://www.w3.org/2000/svg">
<path d="M20.4318 0.959412C15.123 0.959412 11.8063 3.63878 10.4781 8.99971C12.4682 6.32003 14.7915 5.31519 17.4451 5.98519C18.9602 6.36652 20.043 7.47596 21.2421 8.70539C23.1936 10.7053 25.4525 13.0206 30.3855 13.0206C35.6939 13.0206 39.011 10.341 40.3392 4.97877C38.3485 7.65981 36.026 8.66518 33.3719 7.99487C31.8571 7.61322 30.7756 6.5041 29.5749 5.27467C27.6246 3.27472 25.3663 0.959412 20.4318 0.959412ZM10.4781 13.0206C5.16965 13.0206 1.85258 15.7003 0.524384 21.0625C2.51492 18.3815 4.83724 17.3761 7.49135 18.0464C9.00649 18.4281 10.0893 19.5372 11.2884 20.7666C13.2399 22.7666 15.4988 25.0819 20.4318 25.0819C25.7402 25.0819 29.0573 22.4025 30.3855 17.0416C28.3948 19.7214 26.0723 20.7262 23.4182 20.0561C21.9034 19.6748 20.8219 18.5653 19.6212 17.3359C17.6709 15.336 15.4126 13.0206 10.4781 13.0206Z" fill="#38BDF8"/>
</svg>
