<svg width="41" height="44" viewBox="0 0 41 44" fill="none" xmlns="http://www.w3.org/2000/svg">
<path d="M30.8402 0H9.44087C4.22682 0 0 4.61549 0 10.309V33.676C0 39.3695 4.22682 43.985 9.44087 43.985H30.8402C36.0542 43.985 40.281 39.3695 40.281 33.676V10.309C40.281 4.61549 36.0542 0 30.8402 0Z" fill="#007ACC"/>
<path d="M8.90758 22.1383L8.89484 23.9396H14.1377V40.207H17.8464V23.9396H23.0892V22.1732C23.0892 21.1957 23.0701 20.3789 23.0445 20.358C23.0253 20.3301 19.8348 20.316 15.9665 20.3231L8.92694 20.344L8.90758 22.1383ZM32.5028 20.2928C33.5257 20.5722 34.3059 21.0679 35.022 21.8777C35.3928 22.3106 35.9426 23.0996 35.9874 23.2881C36.0002 23.344 34.2483 24.6286 33.187 25.3477C33.1486 25.3757 32.995 25.1941 32.8224 24.9149C32.3046 24.091 31.7611 23.7348 30.9298 23.6721C29.7086 23.5812 28.9222 24.2795 28.9287 25.4454C28.9287 25.7875 28.9734 25.9899 29.1013 26.2693C29.3697 26.8767 29.8685 27.2397 31.4351 27.9797C34.3186 29.3343 35.5525 30.2279 36.3199 31.4985C37.1767 32.9158 37.3685 35.178 36.7866 36.8606C36.1473 38.6897 34.5616 39.9325 32.3301 40.3445C31.6396 40.4771 30.0027 40.4562 29.2611 40.3096C27.6435 39.9953 26.109 39.1227 25.1627 37.9777C24.7918 37.5308 24.0693 36.3649 24.1141 36.281C24.1332 36.2532 24.2995 36.1415 24.4849 36.0228C24.6639 35.9111 25.3418 35.4852 25.9811 35.0802L27.1384 34.3471L27.3813 34.7381C27.7202 35.3036 28.4618 36.0786 28.9095 36.3369C30.1945 37.0771 31.9593 36.9722 32.8288 36.1206C33.1997 35.7505 33.3531 35.3665 33.3531 34.801C33.3531 34.2912 33.2955 34.0679 33.0526 33.6839C32.7393 33.1952 32.1 32.7832 30.2841 31.9245C28.2061 30.947 27.311 30.3396 26.4926 29.3761C26.0195 28.8177 25.5718 27.9239 25.3865 27.1768C25.233 26.5555 25.1947 24.9985 25.3161 24.3702C25.7444 22.178 27.2598 20.649 29.4465 20.1951C30.1563 20.0485 31.8058 20.1044 32.5028 20.2928Z" fill="white"/>
</svg>
